<?xml version="1.0" standalone="no"?>
<svg xmlns:xlink="http://www.w3.org/1999/xlink" id="wave" style="transform:rotate(180deg); transition: 0.3s" viewBox="0 0 1440 160" version="1.1" xmlns="http://www.w3.org/2000/svg"><defs><linearGradient id="sw-gradient-0" x1="0" x2="0" y1="1" y2="0"><stop stop-color="rgba(93.193, 2.218, 238.114, 0.24)" offset="0%"/><stop stop-color="rgba(214.244, 136.283, 255, 1)" offset="100%"/></linearGradient></defs><path style="transform:translate(0, 0px); opacity:1" fill="url(#sw-gradient-0)" d="M0,144L30,125.3C60,107,120,69,180,56C240,43,300,53,360,56C420,59,480,53,540,64C600,75,660,101,720,93.3C780,85,840,43,900,29.3C960,16,1020,32,1080,53.3C1140,75,1200,101,1260,112C1320,123,1380,117,1440,101.3C1500,85,1560,59,1620,56C1680,53,1740,75,1800,88C1860,101,1920,107,1980,104C2040,101,2100,91,2160,85.3C2220,80,2280,80,2340,77.3C2400,75,2460,69,2520,58.7C2580,48,2640,32,2700,32C2760,32,2820,48,2880,53.3C2940,59,3000,53,3060,56C3120,59,3180,69,3240,66.7C3300,64,3360,48,3420,37.3C3480,27,3540,21,3600,16C3660,11,3720,5,3780,10.7C3840,16,3900,32,3960,45.3C4020,59,4080,69,4140,69.3C4200,69,4260,59,4290,53.3L4320,48L4320,160L4290,160C4260,160,4200,160,4140,160C4080,160,4020,160,3960,160C3900,160,3840,160,3780,160C3720,160,3660,160,3600,160C3540,160,3480,160,3420,160C3360,160,3300,160,3240,160C3180,160,3120,160,3060,160C3000,160,2940,160,2880,160C2820,160,2760,160,2700,160C2640,160,2580,160,2520,160C2460,160,2400,160,2340,160C2280,160,2220,160,2160,160C2100,160,2040,160,1980,160C1920,160,1860,160,1800,160C1740,160,1680,160,1620,160C1560,160,1500,160,1440,160C1380,160,1320,160,1260,160C1200,160,1140,160,1080,160C1020,160,960,160,900,160C840,160,780,160,720,160C660,160,600,160,540,160C480,160,420,160,360,160C300,160,240,160,180,160C120,160,60,160,30,160L0,160Z"/><defs><linearGradient id="sw-gradient-1" x1="0" x2="0" y1="1" y2="0"><stop stop-color="rgba(67.762, 13.677, 74.185, 1)" offset="0%"/><stop stop-color="rgba(107.511, 65.612, 151.596, 1)" offset="100%"/></linearGradient></defs><path style="transform:translate(0, 50px); opacity:0.9" fill="url(#sw-gradient-1)" d="M0,96L30,104C60,112,120,128,180,112C240,96,300,48,360,24C420,0,480,0,540,24C600,48,660,96,720,106.7C780,117,840,91,900,88C960,85,1020,107,1080,117.3C1140,128,1200,128,1260,112C1320,96,1380,64,1440,45.3C1500,27,1560,21,1620,37.3C1680,53,1740,91,1800,93.3C1860,96,1920,64,1980,56C2040,48,2100,64,2160,80C2220,96,2280,112,2340,98.7C2400,85,2460,43,2520,32C2580,21,2640,43,2700,56C2760,69,2820,75,2880,64C2940,53,3000,27,3060,18.7C3120,11,3180,21,3240,42.7C3300,64,3360,96,3420,114.7C3480,133,3540,139,3600,117.3C3660,96,3720,48,3780,48C3840,48,3900,96,3960,117.3C4020,139,4080,133,4140,112C4200,91,4260,53,4290,34.7L4320,16L4320,160L4290,160C4260,160,4200,160,4140,160C4080,160,4020,160,3960,160C3900,160,3840,160,3780,160C3720,160,3660,160,3600,160C3540,160,3480,160,3420,160C3360,160,3300,160,3240,160C3180,160,3120,160,3060,160C3000,160,2940,160,2880,160C2820,160,2760,160,2700,160C2640,160,2580,160,2520,160C2460,160,2400,160,2340,160C2280,160,2220,160,2160,160C2100,160,2040,160,1980,160C1920,160,1860,160,1800,160C1740,160,1680,160,1620,160C1560,160,1500,160,1440,160C1380,160,1320,160,1260,160C1200,160,1140,160,1080,160C1020,160,960,160,900,160C840,160,780,160,720,160C660,160,600,160,540,160C480,160,420,160,360,160C300,160,240,160,180,160C120,160,60,160,30,160L0,160Z"/></svg>